# WaveFront *.obj file (generated by Autodesk ATF)

mtllib 479f19f5-24ce-4506-b2c1-f0dc09499177.mtl

g Body8

v 7.000000 30.600000 60.898528
v 7.000000 30.306220 61.290565
v 7.000000 29.971564 61.648343
v 7.000000 29.600000 61.967622
v 7.000000 30.600000 61.967622
v 18.500000 29.600000 61.967622
v 18.500000 29.971564 61.648343
v 18.500000 30.306220 61.290565
v 18.500000 30.600000 60.898528
v 18.500000 30.600000 61.967622
v 7.000000 30.600000 58.000001
v 18.500000 30.600000 58.000001
v 18.500000 30.794111 60.579906
v 18.500000 30.961160 60.246299
v 18.500000 31.100000 59.900001
v 18.500000 38.600000 59.900001
v 18.500000 38.600000 58.000001
v 7.000000 30.794111 60.579906
v 7.000000 30.961160 60.246299
v 7.000000 31.100000 59.900001
v -0.000000 31.100000 59.900001
v -0.000000 30.606505 60.888757
v -0.000000 29.886918 61.727428
v -0.000000 28.984634 62.365439
v -0.000000 27.954065 62.764315
v -0.000000 26.857359 62.900001
v 40.000000 26.857359 62.900001
v 40.000000 27.954065 62.764315
v 40.000000 28.984634 62.365439
v 40.000000 29.886918 61.727428
v 40.000000 30.606505 60.888757
v 40.000000 31.100000 59.900001
v -1.000000 26.600000 58.000001
v -1.000000 46.600000 58.000001
v 40.000000 46.600000 58.000001
v 40.000000 26.600000 58.000001
v 7.000000 38.600000 58.000001
v 7.000000 38.600000 59.900001
v -1.000000 25.350000 61.700001
v 40.000000 25.350000 61.700001
v 40.000000 25.350000 62.900001
v -1.000000 25.350000 62.900001
v -1.000000 26.600000 61.700001
v 40.000000 26.600000 61.700001
v -1.000000 47.850000 62.900001
v -1.000000 47.850000 61.700001
v -1.000000 46.600000 61.700001
v 40.000000 47.850000 61.700001
v 40.000000 47.850000 62.900001
v 40.000000 46.600000 61.700001
v 40.000000 46.342641 62.900001
v 40.000000 45.245935 62.764315
v 40.000000 44.215365 62.365439
v 40.000000 43.313081 61.727428
v 40.000000 42.593495 60.888757
v 40.000000 42.100000 59.900001
v -0.000000 46.342641 62.900001
v -0.000000 42.100000 59.900001
v -0.000000 45.245935 62.764315
v -0.000000 44.215365 62.365439
v -0.000000 43.313081 61.727428
v -0.000000 42.593495 60.888757
vt 0.289853 0.100000 0.000000
vt 0.329056 0.070622 0.000000
vt 0.396762 0.100000 0.000000
vt 0.364834 0.037156 0.000000
vt 0.396762 -0.000000 0.000000
vt -0.000000 0.000000 0.000000
vt 0.031928 0.037156 0.000000
vt -0.000000 0.100000 0.000000
vt 0.067706 0.070622 0.000000
vt 0.106909 0.100000 0.000000
vt -0.000000 0.000000 0.000000
vt 1.150000 0.000000 0.000000
vt -0.000000 0.100000 0.000000
vt 1.150000 0.100000 0.000000
vt 0.010000 0.100000 0.000000
vt 0.299853 0.100000 0.000000
vt 0.010000 1.250000 0.000000
vt 0.299853 1.250000 0.000000
vt 0.406762 0.100000 0.000000
vt 0.406762 1.250000 0.000000
vt -0.100000 0.299853 0.000000
vt -0.119411 0.267991 0.000000
vt -0.100000 0.010000 0.000000
vt -0.136116 0.234630 0.000000
vt -0.150000 0.200000 0.000000
vt -0.900000 0.200000 0.000000
vt -0.900000 0.010000 0.000000
vt -2.050000 -0.000000 0.000000
vt -2.050000 0.037320 0.000000
vt -4.200000 -0.000000 0.000000
vt -4.200000 0.110786 0.000000
vt -2.050000 0.074640 0.000000
vt -2.050000 0.111960 0.000000
vt -2.050000 0.160974 0.000000
vt -4.200000 0.221573 0.000000
vt -2.050000 0.209988 0.000000
vt -2.050000 0.259002 0.000000
vt -0.900000 0.259002 0.000000
vt -0.200000 0.332359 0.000000
vt -4.200000 0.332359 0.000000
vt -0.200000 0.221573 0.000000
vt -0.900000 0.209988 0.000000
vt -0.900000 0.160974 0.000000
vt -0.200000 0.110786 0.000000
vt -0.900000 0.111960 0.000000
vt -0.900000 0.074640 0.000000
vt -0.900000 0.037320 0.000000
vt -0.200000 -0.000000 0.000000
vt -0.900000 -0.000000 0.000000
vt -4.200000 0.443145 0.000000
vt -0.200000 0.443145 0.000000
vt -4.200000 0.553932 0.000000
vt -0.200000 0.553932 0.000000
vt 0.100000 -2.000000 0.000000
vt 0.900000 -1.200000 0.000000
vt 0.100000 0.000000 0.000000
vt 0.900000 -0.400000 0.000000
vt 2.050000 -0.400000 0.000000
vt 2.050000 -1.200000 0.000000
vt 4.200000 -2.000000 0.000000
vt 4.200000 0.000000 0.000000
vt -0.800000 0.299853 0.000000
vt -0.800000 0.010000 0.000000
vt -0.780589 0.267991 0.000000
vt -0.763884 0.234630 0.000000
vt -0.750000 0.200000 0.000000
vt -0.000000 0.010000 0.000000
vt -0.000000 0.200000 0.000000
vt -1.100000 0.010000 0.000000
vt 0.050000 0.010000 0.000000
vt -1.100000 0.200000 0.000000
vt 0.050000 0.200000 0.000000
vt 0.120000 4.200000 0.000000
vt -0.000000 4.200000 0.000000
vt 0.120000 0.100000 0.000000
vt -0.000000 0.100000 0.000000
vt -4.200000 0.025000 0.000000
vt -0.100000 0.025000 0.000000
vt -4.200000 0.150000 0.000000
vt -0.100000 0.150000 0.000000
vt -0.130000 1.125000 0.000000
vt -0.250000 1.125000 0.000000
vt -0.130000 1.000000 0.000000
vt -0.250000 -1.125000 0.000000
vt -0.130000 -1.000000 0.000000
vt -0.130000 -1.125000 0.000000
vt 0.240000 -1.000000 0.000000
vt 0.240000 1.000000 0.000000
vt 0.030000 0.100000 0.000000
vt 0.150000 0.100000 0.000000
vt 0.030000 4.200000 0.000000
vt 0.150000 4.200000 0.000000
vt 0.130000 1.125000 0.000000
vt 0.130000 1.000000 0.000000
vt 0.250000 1.125000 0.000000
vt 0.250000 0.974264 0.000000
vt 0.236431 0.864593 0.000000
vt 0.196544 0.761537 0.000000
vt 0.132743 0.671308 0.000000
vt 0.048876 0.599349 0.000000
vt -0.050000 0.550000 0.000000
vt -0.240000 1.000000 0.000000
vt -0.240000 -1.000000 0.000000
vt -0.050000 -0.550000 0.000000
vt 0.130000 -1.000000 0.000000
vt 0.048876 -0.599349 0.000000
vt 0.132743 -0.671308 0.000000
vt 0.196544 -0.761537 0.000000
vt 0.236431 -0.864593 0.000000
vt 0.250000 -0.974264 0.000000
vt 0.250000 -1.125000 0.000000
vt 0.130000 -1.125000 0.000000
vt 2.275000 4.200000 0.000000
vt 2.124264 0.200000 0.000000
vt 2.275000 0.100000 0.000000
vt 0.175736 0.200000 0.000000
vt 0.025000 0.100000 0.000000
vt 0.025000 4.200000 0.000000
vt 0.175736 4.200000 0.000000
vt 2.124264 4.200000 0.000000
vt -0.100000 0.125000 0.000000
vt -4.200000 0.125000 0.000000
vt -0.100000 0.000000 0.000000
vt -4.200000 0.000000 0.000000
vt 0.010000 0.100000 0.000000
vt 0.380000 0.100000 0.000000
vt 0.010000 4.200000 0.000000
vt 0.380000 4.200000 0.000000
vt 1.100000 2.050000 0.000000
vt 1.100000 4.200000 0.000000
vt 0.350000 2.050000 0.000000
vt 0.000000 4.200000 0.000000
vt 0.000000 0.200000 0.000000
vt 0.350000 0.900000 0.000000
vt 1.100000 0.200000 0.000000
vt 1.100000 0.900000 0.000000
vt 0.200000 0.000000 0.000000
vt 4.200000 0.000000 0.000000
vt 0.200000 0.110786 0.000000
vt 4.200000 0.110786 0.000000
vt 0.200000 0.221573 0.000000
vt 4.200000 0.221573 0.000000
vt 0.200000 0.332359 0.000000
vt 4.200000 0.332359 0.000000
vt 0.200000 0.443145 0.000000
vt 4.200000 0.443145 0.000000
vt 0.200000 0.553932 0.000000
vt 4.200000 0.553932 0.000000
vt -0.150000 -0.550000 0.000000
vt -0.051124 -0.599349 0.000000
vt -0.150000 0.550000 0.000000
vt -0.051124 0.599349 0.000000
vt 0.032743 -0.671308 0.000000
vt 0.032743 0.671308 0.000000
vt 0.096544 -0.761537 0.000000
vt 0.096544 0.761537 0.000000
vt 0.136431 -0.864593 0.000000
vt 0.136431 0.864593 0.000000
vt 0.150000 -0.974264 0.000000
vt 0.150000 0.974264 0.000000
vt 0.340000 4.200000 0.000000
vt -0.030000 4.200000 0.000000
vt 0.340000 0.100000 0.000000
vt -0.030000 0.100000 0.000000
vn -0.100000 0.000000 0.000000
vn -0.100000 0.000000 0.000000
vn -0.100000 0.000000 0.000000
vn -0.100000 0.000000 0.000000
vn -0.100000 0.000000 0.000000
vn 0.100000 0.000000 0.000000
vn 0.100000 0.000000 0.000000
vn 0.100000 0.000000 0.000000
vn 0.100000 0.000000 0.000000
vn 0.100000 0.000000 0.000000
vn 0.000000 0.000000 0.100000
vn 0.000000 0.000000 0.100000
vn 0.000000 0.000000 0.100000
vn 0.000000 0.000000 0.100000
vn 0.000000 0.100000 0.000000
vn 0.000000 0.100000 0.000000
vn 0.000000 0.100000 0.000000
vn 0.000000 0.100000 0.000000
vn 0.000000 0.100000 0.000000
vn 0.000000 0.100000 0.000000
vn -0.100000 0.000000 0.000000
vn -0.100000 0.000000 0.000000
vn -0.100000 0.000000 0.000000
vn -0.100000 0.000000 0.000000
vn -0.100000 0.000000 0.000000
vn -0.100000 0.000000 0.000000
vn -0.100000 0.000000 0.000000
vn 0.000000 0.094281 0.033333
vn 0.000000 0.091196 0.041029
vn 0.000000 0.094281 0.033333
vn 0.000000 0.083314 0.055306
vn 0.000000 0.087483 0.048442
vn 0.000000 0.083170 0.055523
vn 0.000000 0.076641 0.064235
vn 0.000000 0.067324 0.073943
vn 0.000000 0.069205 0.072185
vn 0.000000 0.060948 0.079280
vn 0.000000 0.060948 0.079280
vn 0.000000 0.047273 0.088121
vn 0.000000 0.047273 0.088121
vn 0.000000 0.067324 0.073943
vn 0.000000 0.069205 0.072185
vn 0.000000 0.076641 0.064235
vn 0.000000 0.083314 0.055306
vn 0.000000 0.083170 0.055523
vn 0.000000 0.087483 0.048442
vn 0.000000 0.091196 0.041029
vn 0.000000 0.094281 0.033333
vn 0.000000 0.094281 0.033333
vn 0.000000 0.024371 0.096985
vn 0.000000 0.024371 0.096985
vn 0.000000 -0.000000 0.100000
vn 0.000000 -0.000000 0.100000
vn 0.000000 -0.000000 -0.100000
vn 0.000000 -0.000000 -0.100000
vn 0.000000 -0.000000 -0.100000
vn 0.000000 -0.000000 -0.100000
vn 0.000000 -0.000000 -0.100000
vn 0.000000 -0.000000 -0.100000
vn 0.000000 -0.000000 -0.100000
vn 0.000000 -0.000000 -0.100000
vn 0.100000 0.000000 0.000000
vn 0.100000 0.000000 0.000000
vn 0.100000 0.000000 0.000000
vn 0.100000 0.000000 0.000000
vn 0.100000 0.000000 0.000000
vn 0.100000 0.000000 0.000000
vn 0.100000 0.000000 0.000000
vn 0.000000 -0.100000 0.000000
vn 0.000000 -0.100000 0.000000
vn 0.000000 -0.100000 0.000000
vn 0.000000 -0.100000 0.000000
vn 0.000000 -0.100000 0.000000
vn 0.000000 -0.100000 0.000000
vn 0.000000 -0.100000 0.000000
vn 0.000000 -0.100000 0.000000
vn 0.000000 0.000000 -0.100000
vn 0.000000 0.000000 -0.100000
vn 0.000000 0.000000 -0.100000
vn 0.000000 0.000000 -0.100000
vn -0.100000 0.000000 0.000000
vn -0.100000 0.000000 0.000000
vn -0.100000 0.000000 0.000000
vn -0.100000 0.000000 0.000000
vn -0.100000 0.000000 0.000000
vn -0.100000 0.000000 0.000000
vn -0.100000 0.000000 0.000000
vn -0.100000 0.000000 0.000000
vn -0.000000 0.100000 -0.000000
vn -0.000000 0.100000 -0.000000
vn -0.000000 0.100000 -0.000000
vn -0.000000 0.100000 -0.000000
vn 0.100000 0.000000 0.000000
vn 0.100000 0.000000 0.000000
vn 0.100000 0.000000 0.000000
vn 0.100000 0.000000 0.000000
vn 0.100000 0.000000 0.000000
vn 0.100000 0.000000 0.000000
vn 0.100000 0.000000 0.000000
vn 0.100000 0.000000 0.000000
vn 0.100000 0.000000 0.000000
vn 0.100000 0.000000 0.000000
vn 0.100000 0.000000 0.000000
vn 0.100000 0.000000 0.000000
vn 0.100000 0.000000 0.000000
vn 0.100000 0.000000 0.000000
vn 0.100000 0.000000 0.000000
vn 0.100000 0.000000 0.000000
vn 0.100000 0.000000 0.000000
vn 0.100000 0.000000 0.000000
vn 0.100000 0.000000 0.000000
vn 0.100000 0.000000 0.000000
vn 0.000000 0.000000 0.100000
vn 0.000000 0.000000 0.100000
vn 0.000000 0.000000 0.100000
vn 0.000000 0.000000 0.100000
vn 0.000000 0.000000 0.100000
vn 0.000000 0.000000 0.100000
vn 0.000000 0.000000 -0.100000
vn 0.000000 0.000000 -0.100000
vn 0.000000 0.000000 -0.100000
vn 0.000000 0.000000 -0.100000
vn 0.000000 0.100000 -0.000000
vn 0.000000 0.100000 -0.000000
vn 0.000000 0.100000 -0.000000
vn 0.000000 0.100000 -0.000000
vn 0.000000 0.000000 0.100000
vn 0.000000 0.000000 0.100000
vn 0.000000 0.000000 0.100000
vn 0.000000 0.000000 0.100000
vn 0.000000 0.000000 0.100000
vn 0.000000 0.000000 0.100000
vn 0.000000 0.000000 0.100000
vn 0.000000 0.000000 0.100000
vn 0.000000 -0.094281 0.033333
vn 0.000000 -0.094281 0.033333
vn 0.000000 -0.083314 0.055306
vn 0.000000 -0.083314 0.055306
vn 0.000000 -0.067324 0.073943
vn 0.000000 -0.067324 0.073943
vn 0.000000 -0.047273 0.088121
vn 0.000000 -0.047273 0.088121
vn 0.000000 -0.024371 0.096985
vn 0.000000 -0.024371 0.096985
vn 0.100000 0.000000 0.000000
vn 0.100000 0.000000 0.000000
vn 0.100000 0.000000 0.000000
vn 0.100000 0.000000 0.000000
vn 0.100000 0.000000 0.000000
vn 0.100000 0.000000 0.000000
vn 0.100000 0.000000 0.000000
vn 0.100000 0.000000 0.000000
vn 0.100000 0.000000 0.000000
vn 0.100000 0.000000 0.000000
vn 0.100000 0.000000 0.000000
vn 0.100000 0.000000 0.000000
vn 0.000000 -0.100000 0.000000
vn 0.000000 -0.100000 0.000000
vn 0.000000 -0.100000 0.000000
vn 0.000000 -0.100000 0.000000
usemtl Steel_-_Satin
f 1/1/1 2/2/2 5/3/3
f 5/3/3 2/2/2 3/4/4
f 5/3/3 3/4/4 4/5/5
f 6/6/6 7/7/7 10/8/8
f 10/8/8 7/7/7 8/9/9
f 10/8/8 8/9/9 9/10/10
f 4/11/11 6/12/12 5/13/13
f 5/13/13 6/12/12 10/14/14
f 11/15/15 1/16/16 12/17/17
f 12/17/17 1/16/16 9/18/18
f 9/18/18 1/16/16 5/19/19
f 9/18/18 5/19/19 10/20/20
f 9/21/21 13/22/22 12/23/23
f 12/23/23 13/22/22 14/24/24
f 12/23/23 14/24/24 15/25/25
f 16/26/26 17/27/27 15/25/25
f 15/25/25 17/27/27 12/23/23
f 15/28/28 14/29/29 32/30/30
f 32/30/30 14/29/29 31/31/31
f 31/31/31 14/29/29 13/32/32
f 31/31/31 13/32/32 9/33/33
f 9/33/33 8/34/34 31/31/31
f 31/31/31 8/34/34 30/35/35
f 30/35/35 8/34/34 7/36/36
f 30/35/35 7/36/36 6/37/37
f 4/38/38 24/39/39 6/37/37
f 6/37/37 24/39/39 29/40/40
f 6/37/37 29/40/40 30/35/35
f 24/39/39 4/38/38 23/41/41
f 23/41/41 4/38/38 3/42/42
f 23/41/41 3/42/42 2/43/43
f 23/41/41 2/43/43 22/44/44
f 22/44/44 2/43/43 1/45/45
f 22/44/44 1/45/45 18/46/46
f 18/46/46 19/47/47 22/44/44
f 22/44/44 19/47/47 21/48/48
f 21/48/48 19/47/47 20/49/49
f 29/40/40 24/39/39 28/50/50
f 28/50/50 24/39/39 25/51/51
f 28/50/50 25/51/51 27/52/52
f 27/52/52 25/51/51 26/53/53
f 34/54/54 37/55/55 33/56/56
f 33/56/56 37/55/55 11/57/57
f 33/56/56 11/57/57 12/58/58
f 37/55/55 34/54/54 17/59/59
f 17/59/59 34/54/54 35/60/60
f 17/59/59 35/60/60 36/61/61
f 17/59/59 36/61/61 12/58/58
f 12/58/58 36/61/61 33/56/56
f 1/62/62 11/63/63 18/64/64
f 18/64/64 11/63/63 19/65/65
f 19/65/65 11/63/63 20/66/66
f 20/66/66 11/63/63 37/67/67
f 20/66/66 37/67/67 38/68/68
f 37/69/69 17/70/70 38/71/71
f 38/71/71 17/70/70 16/72/72
f 40/73/73 41/74/74 39/75/75
f 39/75/75 41/74/74 42/76/76
f 40/77/77 39/78/78 44/79/79
f 44/79/79 39/78/78 43/80/80
f 39/81/81 42/82/82 43/83/83
f 43/83/83 42/82/82 45/84/84
f 43/83/83 45/84/84 47/85/85
f 47/85/85 45/84/84 46/86/86
f 47/85/85 34/87/87 43/83/83
f 43/83/83 34/87/87 33/88/88
f 46/89/89 45/90/90 48/91/91
f 48/91/91 45/90/90 49/92/92
f 40/93/93 44/94/94 41/95/95
f 41/95/95 44/94/94 27/96/96
f 27/96/96 44/94/94 28/97/97
f 28/97/97 44/94/94 29/98/98
f 29/98/98 44/94/94 30/99/99
f 30/99/99 44/94/94 31/100/100
f 31/100/100 44/94/94 32/101/101
f 32/101/101 44/94/94 36/102/102
f 32/101/101 36/102/102 35/103/103
f 32/101/101 35/103/103 56/104/104
f 56/104/104 35/103/103 50/105/105
f 56/104/104 50/105/105 55/106/106
f 55/106/106 50/105/105 54/107/107
f 54/107/107 50/105/105 53/108/108
f 53/108/108 50/105/105 52/109/109
f 52/109/109 50/105/105 51/110/110
f 51/110/110 50/105/105 49/111/111
f 49/111/111 50/105/105 48/112/112
f 41/113/113 26/114/53 42/115/114
f 42/115/114 26/114/53 57/116/115
f 42/115/114 57/116/115 45/117/116
f 45/117/116 57/116/115 49/118/117
f 49/118/117 57/116/115 51/119/118
f 41/113/113 27/120/52 26/114/53
f 46/121/119 48/122/120 47/123/121
f 47/123/121 48/122/120 50/124/122
f 34/125/123 47/126/124 35/127/125
f 35/127/125 47/126/124 50/128/126
f 15/129/127 32/130/128 16/131/129
f 16/131/129 32/130/128 56/132/130
f 16/131/129 56/132/130 58/133/131
f 16/131/129 58/133/131 38/134/132
f 38/134/132 58/133/131 21/135/133
f 38/134/132 21/135/133 20/136/134
f 58/137/135 56/138/136 62/139/137
f 62/139/137 56/138/136 55/140/138
f 62/139/137 55/140/138 61/141/139
f 61/141/139 55/140/138 54/142/140
f 61/141/139 54/142/140 60/143/141
f 60/143/141 54/142/140 53/144/142
f 60/143/141 53/144/142 59/145/143
f 59/145/143 53/144/142 52/146/144
f 59/145/143 52/146/144 57/147/115
f 57/147/115 52/146/144 51/148/118
f 58/149/145 62/150/146 21/151/147
f 21/151/147 62/150/146 22/152/148
f 22/152/148 62/150/146 61/153/149
f 22/152/148 61/153/149 23/154/150
f 23/154/150 61/153/149 60/155/151
f 23/154/150 60/155/151 24/156/152
f 24/156/152 60/155/151 59/157/153
f 24/156/152 59/157/153 25/158/154
f 25/158/154 59/157/153 57/159/155
f 25/158/154 57/159/155 26/160/156
f 36/161/157 44/162/158 33/163/159
f 33/163/159 44/162/158 43/164/160
# 62 vertices
# 164 texture params
# 160 normals
# 124 facets

# 1 groups
